<?xml version="1.0" encoding="utf-8"?>
<!-- Generator: Adobe Illustrator 22.0.0, SVG Export Plug-In . SVG Version: 6.00 Build 0)  -->
<svg version="1.1" id="Capa_1" xmlns="http://www.w3.org/2000/svg" xmlns:xlink="http://www.w3.org/1999/xlink" x="0px" y="0px"
	 viewBox="0 0 512 512" style="enable-background:new 0 0 512 512;" xml:space="preserve">
<style type="text/css">
	.st0{fill:#FFFFFF;stroke:#000000;stroke-width:3;stroke-miterlimit:10;}
</style>
<g>
	<g>
		<path class="st0" d="M492,122.4c-13.3-13.3-29.4-20-48.3-20H384l-13.6-36.3c-3.4-8.7-9.6-16.2-18.5-22.5c-9-6.3-18.2-9.5-27.6-9.5
			H187.7c-9.4,0-18.6,3.2-27.6,9.5c-9,6.3-15.2,13.8-18.5,22.5L128,102.4H68.3c-18.8,0-34.9,6.7-48.3,20C6.7,135.7,0,151.8,0,170.7
			v238.9c0,18.8,6.7,34.9,20,48.3c13.3,13.3,29.4,20,48.3,20h375.5c18.8,0,34.9-6.7,48.3-20c13.3-13.3,20-29.4,20-48.3V170.7
			C512,151.8,505.3,135.7,492,122.4z M340.4,374.5c-23.4,23.4-51.5,35.1-84.4,35.1s-61-11.7-84.4-35.1
			c-23.4-23.4-35.1-51.5-35.1-84.4c0-32.9,11.7-61,35.1-84.4c23.4-23.4,51.5-35.1,84.4-35.1s61,11.7,84.4,35.1
			c23.4,23.4,35.1,51.5,35.1,84.4C375.5,323,363.8,351.2,340.4,374.5z"/>
		<path class="st0" d="M256,213.3c-21.2,0-39.2,7.5-54.3,22.5c-15,15-22.5,33.1-22.5,54.3c0,21.2,7.5,39.2,22.5,54.3
			c15,15,33.1,22.5,54.3,22.5c21.2,0,39.2-7.5,54.3-22.5c15-15,22.5-33.1,22.5-54.3c0-21.2-7.5-39.2-22.5-54.3
			C295.2,220.8,277.2,213.3,256,213.3z"/>
	</g>
</g>
</svg>
