<?xml version="1.0" encoding="utf-8"?>
<!-- Generator: Adobe Illustrator 22.0.0, SVG Export Plug-In . SVG Version: 6.00 Build 0)  -->
<svg version="1.1" id="Layer_1" xmlns="http://www.w3.org/2000/svg" xmlns:xlink="http://www.w3.org/1999/xlink" x="0px" y="0px"
	 viewBox="0 0 38.8 35" style="enable-background:new 0 0 38.8 35;" xml:space="preserve">
<style type="text/css">
	.st0{opacity:0.71;}
	.st1{stroke:#000000;stroke-miterlimit:10;}
</style>
<g class="st0">
	<g>
		<path class="st1" d="M28.5,14.7C28.5,14.7,28.5,14.6,28.5,14.7l-1.3-6.3C26.9,7,25.7,6,24.3,6H11.7c-1.3,0-2.5,1-2.8,2.4l-1.3,6.2
			c0,0.1,0,0.1,0,0.2c-0.9,0.5-1.4,1.5-1.4,2.6v6c0,0.9,0.5,1.7,1.2,2.2c0,0,0,0.1,0,0.1v2.1c0,1.2,0.9,2.1,2,2.1h0.6
			c1.1,0,2-0.9,2-2.1v-1.5h12.6v1.5c0,1.2,0.9,2.1,2,2.1H27c1.1,0,2-0.9,2-2.1v-2.1c0.7-0.5,1.1-1.4,1.1-2.4v-6
			C30.2,16.2,29.5,15.2,28.5,14.7z M10.1,8.7c0.2-0.8,0.9-1.4,1.7-1.4h12.6c0.8,0,1.5,0.6,1.7,1.4l1.2,5.8H9c-0.1,0-0.1,0-0.2,0
			L10.1,8.7z M10.7,27.9c0,0.5-0.4,0.9-0.9,0.9H9.3c-0.5,0-0.9-0.4-0.9-0.9v-1.6c0.3,0.1,0.6,0.1,0.9,0.1h1.4V27.9z M27.9,27.9
			c0,0.5-0.4,0.9-0.9,0.9h-0.6c-0.5,0-0.9-0.4-0.9-0.9v-1.5h1.7c0.2,0,0.4,0,0.6-0.1V27.9z M29,23.4c0,1-0.8,1.8-1.7,1.8h-18
			c-0.9,0-2-0.8-2-1.8v-6c0-1,0.8-1.8,1.7-1.8h18.3c0.9,0,1.7,0.8,1.7,1.8V23.4z"/>
		<path class="st1" d="M10.5,18.3c-0.9,0-1.7,0.8-1.7,1.8s0.8,1.8,1.7,1.8c0.9,0,1.7-0.8,1.7-1.8S11.4,18.3,10.5,18.3z M10.5,20.7
			c-0.3,0-0.6-0.3-0.6-0.6s0.3-0.6,0.6-0.6c0.3,0,0.6,0.3,0.6,0.6S10.8,20.7,10.5,20.7z"/>
		<path class="st1" d="M25.9,18.3c-0.9,0-1.7,0.8-1.7,1.8s0.8,1.8,1.7,1.8s1.7-0.8,1.7-1.8S26.8,18.3,25.9,18.3z M25.9,20.7
			c-0.3,0-0.6-0.3-0.6-0.6s0.3-0.6,0.6-0.6s0.6,0.3,0.6,0.6S26.2,20.7,25.9,20.7z"/>
	</g>
</g>
</svg>
