<?xml version="1.0" encoding="utf-8"?>
<!-- Generator: Adobe Illustrator 22.0.0, SVG Export Plug-In . SVG Version: 6.00 Build 0)  -->
<svg version="1.1" id="Capa_1" xmlns="http://www.w3.org/2000/svg" xmlns:xlink="http://www.w3.org/1999/xlink" x="0px" y="0px"
	 viewBox="0 0 512 512" style="enable-background:new 0 0 512 512;" xml:space="preserve">
<style type="text/css">
	.st0{fill:#FFFFFF;stroke:#000000;stroke-width:4;stroke-miterlimit:10;}
</style>
<g>
	<path class="st0" d="M363.4,33.4c0,18.4-18.8,33.4-42,33.4H190.7c-23.2,0-42-14.4-42-32.1s-18.8-32.1-42-32.1H56.7
		c-23.2,0-42,18.8-42,42V470c0,23.2,18.8,42,42,42h49.9c23.2,0,42-13.9,42-31.1s18.8-31.1,42-31.1h130.7c23.2,0,42,13.3,42,29.8
		s18.8,29.8,42,29.8h49.9c23.2,0,42-18.8,42-42V42c0-23.2-18.8-42-42-42h-49.9C382.2,0,363.4,14.9,363.4,33.4z M81.6,35.1
		c17.5,0,31.7,7.1,31.7,15.8v15.8c0,0,0,7.1,0,15.8s-6.6,15.8-14.9,15.8H83.6c0,0-7.5,0-16.8,0S50,84.3,50,66.8S64.1,35.1,81.6,35.1
		z M66.8,160.5h16.8c0,0,6.6,0,14.9,0s14.9,14.2,14.9,31.7s-6.6,31.7-14.9,31.7H83.6c0,0-7.5,0-16.8,0S50,209.7,50,192.2
		S57.5,160.5,66.8,160.5z M66.8,285.9h16.8c0,0,6.6,0,14.9,0s14.9,14.2,14.9,31.7s-6.6,31.7-14.9,31.7H83.6c0,0-7.5,0-16.8,0
		S50,335.1,50,317.6S57.5,285.9,66.8,285.9z M81.6,474.8c-17.5,0-31.7-14.2-31.7-31.7s7.5-31.7,16.8-31.7h16.8c0,0,6.6,0,14.9,0
		s14.9,8.6,14.9,19.2v19.2c0,0,0,5.6,0,12.4S99.2,474.8,81.6,474.8z M298.2,370.8h-86.3c-23.2,0-42-18.8-42-42v-2.6
		c0-23.2,18.8-42,42-42h86.3c23.2,0,42,18.8,42,42v2.6C340.2,352,321.4,370.8,298.2,370.8z M298.2,225.9h-86.3
		c-23.2,0-42-18.8-42-42v-2.6c0-23.2,18.8-42,42-42h86.3c23.2,0,42,18.8,42,42v2.6C340.2,207.1,321.4,225.9,298.2,225.9z
		 M430.4,474.8c-17.5,0-31.7-5.6-31.7-12.4v-12.4c0,0,0-8.6,0-19.2s7.1-19.2,15.8-19.2h15.8c0,0,7.1,0,15.8,0s15.8,14.2,15.8,31.7
		C462,460.6,447.9,474.8,430.4,474.8z M446.2,349.3h-15.8c0,0-7.1,0-15.8,0s-15.8-14.2-15.8-31.7s7.1-31.7,15.8-31.7h15.8
		c0,0,7.1,0,15.8,0s15.8,14.2,15.8,31.7S454.9,349.3,446.2,349.3z M446.2,223.9h-15.8c0,0-7.1,0-15.8,0s-15.8-14.2-15.8-31.7
		s7.1-31.7,15.8-31.7h15.8c0,0,7.1,0,15.8,0s15.8,14.2,15.8,31.7S454.9,223.9,446.2,223.9z M446.2,98.4h-15.8c0,0-7.1,0-15.8,0
		s-15.8-7.1-15.8-15.8V66.7c0,0,0-7.1,0-15.8s14.2-15.8,31.7-15.8S462,49.2,462,66.7S454.9,98.4,446.2,98.4z"/>
</g>
</svg>
