<?xml version="1.0" encoding="utf-8"?>
<!-- Generator: Adobe Illustrator 22.0.0, SVG Export Plug-In . SVG Version: 6.00 Build 0)  -->
<svg version="1.1" id="Layer_1" xmlns="http://www.w3.org/2000/svg" xmlns:xlink="http://www.w3.org/1999/xlink" x="0px" y="0px"
	 viewBox="0 0 30 30" style="enable-background:new 0 0 30 30;" xml:space="preserve">
<style type="text/css">
	.st0{opacity:0.6;}
	.st1{opacity:0.58;}
</style>
<g class="st0">
	<g>
		<path d="M15,0.5L0.5,14.9h2.3v14.6h24.5V14.9h2.3L15,0.5z M25.5,27.8h-21V13.4L15,2.9l10.5,10.5V27.8z"/>
	</g>
</g>
<g class="st1">
	<g>
		<path d="M20.3,16.4c-1.4-1.4-3.7-1.4-5.1,0L15,16.6l-0.2-0.2c-0.7-0.7-1.6-1.1-2.5-1.1s-1.9,0.4-2.5,1.1c-1.4,1.4-1.4,3.7,0,5.1
			l5.3,5.3l5.3-5.3C21.7,20.1,21.7,17.8,20.3,16.4z M19.2,20.5L15,24.8l-4.2-4.3c-0.8-0.9-0.8-2.2,0-3.1c0.4-0.4,1-0.6,1.5-0.6
			s1.1,0.2,1.5,0.6l1.2,1.2l1.2-1.2c0.8-0.9,2.2-0.9,3.1,0C20.1,18.3,20.1,19.7,19.2,20.5z"/>
	</g>
</g>
</svg>
